<svg width="290" height="65" viewBox="0 0 290 65" fill="none" xmlns="http://www.w3.org/2000/svg">
<path d="M30 0.5H289.5V35C289.5 51.2924 276.292 64.5 260 64.5H0.5V30C0.5 13.7076 13.7076 0.5 30 0.5Z" stroke="#FF7527"/>
<path d="M129.648 29.694L126.168 40.3024H123.364L128.119 27.5055H129.903L129.648 29.694ZM132.54 40.3024L129.05 29.694L128.769 27.5055H130.571L135.352 40.3024H132.54ZM132.381 35.5387V37.6041H125.623V35.5387H132.381ZM141.997 38.2281V26.8024H144.545V40.3024H142.252L141.997 38.2281ZM135.985 35.6617V35.4772C135.985 34.7506 136.067 34.0914 136.231 33.4996C136.395 32.902 136.635 32.3893 136.952 31.9615C137.268 31.5338 137.658 31.2028 138.121 30.9684C138.584 30.734 139.111 30.6168 139.703 30.6168C140.259 30.6168 140.746 30.734 141.162 30.9684C141.584 31.2028 141.941 31.5367 142.234 31.9703C142.533 32.3981 142.773 32.9049 142.955 33.4908C143.136 34.0709 143.268 34.7067 143.35 35.3981V35.8024C143.268 36.4645 143.136 37.0797 142.955 37.6481C142.773 38.2164 142.533 38.7145 142.234 39.1422C141.941 39.5641 141.584 39.8922 141.162 40.1266C140.74 40.361 140.248 40.4781 139.685 40.4781C139.093 40.4781 138.566 40.358 138.103 40.1178C137.646 39.8776 137.259 39.5406 136.943 39.1071C136.632 38.6735 136.395 38.1637 136.231 37.5778C136.067 36.9918 135.985 36.3531 135.985 35.6617ZM138.516 35.4772V35.6617C138.516 36.0543 138.545 36.4205 138.604 36.7604C138.669 37.1002 138.771 37.402 138.912 37.6656C139.058 37.9235 139.246 38.1256 139.474 38.2721C139.709 38.4127 139.993 38.483 140.327 38.483C140.76 38.483 141.118 38.3864 141.399 38.193C141.68 37.9938 141.894 37.7213 142.041 37.3756C142.193 37.0299 142.281 36.6315 142.304 36.1803V35.0289C142.287 34.6598 142.234 34.3287 142.146 34.0358C142.064 33.7369 141.941 33.4821 141.777 33.2711C141.619 33.0602 141.419 32.8961 141.179 32.7789C140.945 32.6617 140.667 32.6031 140.344 32.6031C140.016 32.6031 139.735 32.6793 139.501 32.8317C139.266 32.9781 139.076 33.1803 138.929 33.4381C138.789 33.6959 138.683 34.0006 138.613 34.3522C138.548 34.6979 138.516 35.0729 138.516 35.4772ZM152.139 38.2281V26.8024H154.688V40.3024H152.394L152.139 38.2281ZM146.128 35.6617V35.4772C146.128 34.7506 146.21 34.0914 146.374 33.4996C146.538 32.902 146.778 32.3893 147.094 31.9615C147.411 31.5338 147.8 31.2028 148.263 30.9684C148.726 30.734 149.253 30.6168 149.845 30.6168C150.402 30.6168 150.888 30.734 151.304 30.9684C151.726 31.2028 152.084 31.5367 152.377 31.9703C152.675 32.3981 152.916 32.9049 153.097 33.4908C153.279 34.0709 153.411 34.7067 153.493 35.3981V35.8024C153.411 36.4645 153.279 37.0797 153.097 37.6481C152.916 38.2164 152.675 38.7145 152.377 39.1422C152.084 39.5641 151.726 39.8922 151.304 40.1266C150.882 40.361 150.39 40.4781 149.828 40.4781C149.236 40.4781 148.709 40.358 148.246 40.1178C147.789 39.8776 147.402 39.5406 147.086 39.1071C146.775 38.6735 146.538 38.1637 146.374 37.5778C146.21 36.9918 146.128 36.3531 146.128 35.6617ZM148.659 35.4772V35.6617C148.659 36.0543 148.688 36.4205 148.747 36.7604C148.811 37.1002 148.914 37.402 149.054 37.6656C149.201 37.9235 149.388 38.1256 149.617 38.2721C149.851 38.4127 150.135 38.483 150.469 38.483C150.903 38.483 151.26 38.3864 151.542 38.193C151.823 37.9938 152.037 37.7213 152.183 37.3756C152.336 37.0299 152.423 36.6315 152.447 36.1803V35.0289C152.429 34.6598 152.377 34.3287 152.289 34.0358C152.207 33.7369 152.084 33.4821 151.919 33.2711C151.761 33.0602 151.562 32.8961 151.322 32.7789C151.087 32.6617 150.809 32.6031 150.487 32.6031C150.159 32.6031 149.878 32.6793 149.643 32.8317C149.409 32.9781 149.218 33.1803 149.072 33.4381C148.931 33.6959 148.826 34.0006 148.755 34.3522C148.691 34.6979 148.659 35.0729 148.659 35.4772ZM165.806 30.7926V32.5856H160.269V30.7926H165.806ZM161.64 28.4459H164.171V37.4371C164.171 37.7125 164.207 37.9235 164.277 38.0699C164.353 38.2164 164.464 38.319 164.611 38.3776C164.757 38.4303 164.942 38.4567 165.165 38.4567C165.323 38.4567 165.463 38.4508 165.586 38.4391C165.715 38.4215 165.824 38.4039 165.912 38.3864L165.92 40.2496C165.704 40.3199 165.469 40.3756 165.217 40.4166C164.965 40.4576 164.687 40.4781 164.382 40.4781C163.826 40.4781 163.339 40.3873 162.923 40.2057C162.513 40.0182 162.197 39.7194 161.974 39.3092C161.752 38.899 161.64 38.36 161.64 37.692V28.4459ZM166.615 35.6442V35.4596C166.615 34.7623 166.714 34.1207 166.914 33.5348C167.113 32.943 167.403 32.4303 167.784 31.9967C168.165 31.5631 168.633 31.2262 169.19 30.986C169.747 30.7399 170.385 30.6168 171.106 30.6168C171.827 30.6168 172.468 30.7399 173.031 30.986C173.593 31.2262 174.065 31.5631 174.446 31.9967C174.833 32.4303 175.126 32.943 175.325 33.5348C175.524 34.1207 175.624 34.7623 175.624 35.4596V35.6442C175.624 36.3356 175.524 36.9772 175.325 37.569C175.126 38.1549 174.833 38.6676 174.446 39.1071C174.065 39.5406 173.596 39.8776 173.04 40.1178C172.483 40.358 171.844 40.4781 171.124 40.4781C170.403 40.4781 169.761 40.358 169.199 40.1178C168.642 39.8776 168.17 39.5406 167.784 39.1071C167.403 38.6676 167.113 38.1549 166.914 37.569C166.714 36.9772 166.615 36.3356 166.615 35.6442ZM169.146 35.4596V35.6442C169.146 36.0426 169.181 36.4147 169.252 36.7604C169.322 37.1061 169.433 37.4108 169.586 37.6744C169.744 37.9323 169.949 38.1344 170.201 38.2809C170.453 38.4274 170.76 38.5006 171.124 38.5006C171.475 38.5006 171.777 38.4274 172.029 38.2809C172.281 38.1344 172.483 37.9323 172.635 37.6744C172.788 37.4108 172.899 37.1061 172.969 36.7604C173.045 36.4147 173.084 36.0426 173.084 35.6442V35.4596C173.084 35.0729 173.045 34.7096 172.969 34.3698C172.899 34.024 172.785 33.7194 172.627 33.4557C172.474 33.1862 172.272 32.9752 172.02 32.8229C171.768 32.6705 171.463 32.5944 171.106 32.5944C170.749 32.5944 170.444 32.6705 170.192 32.8229C169.946 32.9752 169.744 33.1862 169.586 33.4557C169.433 33.7194 169.322 34.024 169.252 34.3698C169.181 34.7096 169.146 35.0729 169.146 35.4596ZM189.238 36.0573H191.866C191.813 36.9186 191.576 37.6832 191.154 38.3512C190.738 39.0192 190.155 39.5406 189.405 39.9156C188.661 40.2906 187.764 40.4781 186.715 40.4781C185.895 40.4781 185.16 40.3375 184.509 40.0563C183.859 39.7692 183.302 39.359 182.839 38.8258C182.382 38.2926 182.034 37.6481 181.794 36.8922C181.553 36.1364 181.433 35.2897 181.433 34.3522V33.4645C181.433 32.527 181.556 31.6803 181.802 30.9244C182.054 30.1627 182.412 29.5153 182.875 28.9821C183.343 28.4489 183.903 28.0387 184.553 27.7516C185.204 27.4645 185.93 27.3209 186.733 27.3209C187.799 27.3209 188.699 27.5143 189.431 27.901C190.169 28.2877 190.741 28.8209 191.145 29.5006C191.555 30.1803 191.801 30.9537 191.883 31.8209H189.247C189.217 31.3053 189.115 30.8688 188.939 30.5114C188.763 30.1481 188.497 29.8756 188.139 29.694C187.788 29.5065 187.319 29.4127 186.733 29.4127C186.294 29.4127 185.91 29.4948 185.582 29.6588C185.253 29.8229 184.978 30.0719 184.755 30.4059C184.533 30.7399 184.366 31.1617 184.254 31.6715C184.149 32.1754 184.096 32.7672 184.096 33.4469V34.3522C184.096 35.0143 184.146 35.5973 184.246 36.1012C184.345 36.5992 184.498 37.0211 184.703 37.3668C184.914 37.7067 185.183 37.9645 185.511 38.1403C185.845 38.3102 186.247 38.3951 186.715 38.3951C187.266 38.3951 187.72 38.3073 188.078 38.1315C188.435 37.9557 188.708 37.6949 188.895 37.3492C189.088 37.0035 189.203 36.5729 189.238 36.0573ZM198.572 38.1578V33.9215C198.572 33.6168 198.522 33.3561 198.422 33.1393C198.323 32.9166 198.168 32.7438 197.957 32.6207C197.752 32.4977 197.485 32.4362 197.157 32.4362C196.876 32.4362 196.632 32.486 196.427 32.5856C196.222 32.6793 196.064 32.817 195.953 32.9987C195.841 33.1744 195.786 33.3824 195.786 33.6227H193.254C193.254 33.2184 193.348 32.8346 193.536 32.4713C193.723 32.108 193.996 31.7887 194.353 31.5133C194.711 31.2321 195.135 31.0123 195.628 30.8541C196.126 30.6959 196.682 30.6168 197.297 30.6168C198.036 30.6168 198.692 30.7399 199.266 30.986C199.84 31.2321 200.292 31.6012 200.62 32.0934C200.954 32.5856 201.121 33.2008 201.121 33.9391V38.0084C201.121 38.5299 201.153 38.9576 201.217 39.2916C201.282 39.6198 201.376 39.9069 201.499 40.153V40.3024H198.941C198.818 40.0446 198.724 39.7223 198.66 39.3356C198.601 38.943 198.572 38.5504 198.572 38.1578ZM198.906 34.5104L198.923 35.943H197.508C197.174 35.943 196.884 35.9811 196.638 36.0573C196.392 36.1334 196.19 36.2418 196.032 36.3824C195.874 36.5172 195.756 36.6754 195.68 36.8571C195.61 37.0387 195.575 37.2379 195.575 37.4547C195.575 37.6715 195.625 37.8678 195.724 38.0436C195.824 38.2135 195.967 38.3483 196.155 38.4479C196.342 38.5416 196.562 38.5885 196.814 38.5885C197.195 38.5885 197.526 38.5123 197.807 38.36C198.088 38.2076 198.305 38.0201 198.458 37.7975C198.616 37.5748 198.698 37.3639 198.704 37.1647L199.372 38.2369C199.278 38.4772 199.149 38.7262 198.985 38.984C198.827 39.2418 198.625 39.485 198.378 39.7135C198.132 39.9362 197.836 40.1207 197.491 40.2672C197.145 40.4078 196.735 40.4781 196.26 40.4781C195.657 40.4781 195.109 40.358 194.617 40.1178C194.13 39.8717 193.744 39.5348 193.457 39.1071C193.175 38.6735 193.035 38.1813 193.035 37.6305C193.035 37.1324 193.128 36.6901 193.316 36.3033C193.503 35.9166 193.779 35.5914 194.142 35.3278C194.511 35.0582 194.971 34.8561 195.522 34.7213C196.073 34.5807 196.711 34.5104 197.438 34.5104H198.906ZM205.603 32.8668V40.3024H203.072V30.7926H205.454L205.603 32.8668ZM208.468 30.7311L208.424 33.0778C208.301 33.0602 208.152 33.0455 207.976 33.0338C207.806 33.0162 207.651 33.0074 207.51 33.0074C207.153 33.0074 206.842 33.0543 206.579 33.1481C206.321 33.236 206.104 33.3678 205.928 33.5436C205.758 33.7194 205.629 33.9332 205.542 34.1852C205.46 34.4371 205.413 34.7242 205.401 35.0465L204.891 34.8883C204.891 34.2731 204.953 33.7076 205.076 33.192C205.199 32.6705 205.378 32.2164 205.612 31.8297C205.852 31.443 206.145 31.1442 206.491 30.9332C206.836 30.7223 207.232 30.6168 207.677 30.6168C207.818 30.6168 207.961 30.6285 208.108 30.652C208.254 30.6696 208.375 30.6959 208.468 30.7311ZM214.761 30.7926V32.5856H209.224V30.7926H214.761ZM210.595 28.4459H213.127V37.4371C213.127 37.7125 213.162 37.9235 213.232 38.0699C213.308 38.2164 213.419 38.319 213.566 38.3776C213.712 38.4303 213.897 38.4567 214.12 38.4567C214.278 38.4567 214.419 38.4508 214.542 38.4391C214.67 38.4215 214.779 38.4039 214.867 38.3864L214.876 40.2496C214.659 40.3199 214.424 40.3756 214.172 40.4166C213.92 40.4576 213.642 40.4781 213.337 40.4781C212.781 40.4781 212.294 40.3873 211.878 40.2057C211.468 40.0182 211.152 39.7194 210.929 39.3092C210.707 38.899 210.595 38.36 210.595 37.692V28.4459Z" fill="#FF7527"/>
<path d="M85.5814 50.6512C86.519 50.6512 87.2791 49.8911 87.2791 48.9535C87.2791 48.0159 86.519 47.2559 85.5814 47.2559C84.6438 47.2559 83.8837 48.0159 83.8837 48.9535C83.8837 49.8911 84.6438 50.6512 85.5814 50.6512Z" stroke="#FF7527" stroke-width="2" stroke-linecap="round" stroke-linejoin="round"/>
<path d="M104.256 50.6512C105.193 50.6512 105.953 49.8911 105.953 48.9535C105.953 48.0159 105.193 47.2559 104.256 47.2559C103.318 47.2559 102.558 48.0159 102.558 48.9535C102.558 49.8911 103.318 50.6512 104.256 50.6512Z" stroke="#FF7527" stroke-width="2" stroke-linecap="round" stroke-linejoin="round"/>
<path d="M83.3405 37.7319C83.4957 38.5135 83.9209 39.2156 84.5416 39.7153C85.1624 40.2149 85.9391 40.4804 86.7358 40.4651H103.237C104.034 40.4804 104.811 40.2149 105.431 39.7153C106.052 39.2156 106.477 38.5135 106.633 37.7319L109.349 23.4884H80.4896L83.3405 37.7319Z" fill="#FF7527"/>
<path d="M72 15H78.7907L80.4896 23.4884M80.4884 23.4884H80.4896M80.4896 23.4884L83.3405 37.7319C83.4957 38.5135 83.9209 39.2156 84.5416 39.7153C85.1624 40.2149 85.9391 40.4804 86.7358 40.4651H103.237C104.034 40.4804 104.811 40.2149 105.431 39.7153C106.052 39.2156 106.477 38.5135 106.633 37.7319L109.349 23.4884H80.4896Z" stroke="#FF7527" stroke-width="2" stroke-linecap="round" stroke-linejoin="round"/>
</svg>
