<svg width="148" height="38" viewBox="0 0 148 38" fill="none" xmlns="http://www.w3.org/2000/svg">
<path d="M58.648 15.694L55.1675 26.3024H52.3638L57.1187 13.5055H58.9029L58.648 15.694ZM61.5396 26.3024L58.0504 15.694L57.7691 13.5055H59.5709L64.3521 26.3024H61.5396ZM61.3814 21.5387V23.6041H54.6226V21.5387H61.3814ZM70.9966 24.2281V12.8024H73.5455V26.3024H71.2515L70.9966 24.2281ZM64.9849 21.6617V21.4772C64.9849 20.7506 65.067 20.0914 65.231 19.4996C65.3951 18.902 65.6353 18.3893 65.9517 17.9615C66.2681 17.5338 66.6578 17.2028 67.1207 16.9684C67.5836 16.734 68.1109 16.6168 68.7027 16.6168C69.2593 16.6168 69.7457 16.734 70.1617 16.9684C70.5836 17.2028 70.941 17.5367 71.2339 17.9703C71.5328 18.3981 71.773 18.9049 71.9547 19.4908C72.1363 20.0709 72.2681 20.7067 72.3502 21.3981V21.8024C72.2681 22.4645 72.1363 23.0797 71.9547 23.6481C71.773 24.2164 71.5328 24.7145 71.2339 25.1422C70.941 25.5641 70.5836 25.8922 70.1617 26.1266C69.7398 26.361 69.2476 26.4781 68.6851 26.4781C68.0933 26.4781 67.566 26.358 67.1031 26.1178C66.6461 25.8776 66.2593 25.5406 65.9429 25.1071C65.6324 24.6735 65.3951 24.1637 65.231 23.5778C65.067 22.9918 64.9849 22.3531 64.9849 21.6617ZM67.5162 21.4772V21.6617C67.5162 22.0543 67.5455 22.4205 67.6041 22.7604C67.6685 23.1002 67.7711 23.402 67.9117 23.6656C68.0582 23.9235 68.2457 24.1256 68.4742 24.2721C68.7086 24.4127 68.9927 24.483 69.3267 24.483C69.7603 24.483 70.1177 24.3864 70.399 24.193C70.6802 23.9938 70.8941 23.7213 71.0406 23.3756C71.1929 23.0299 71.2808 22.6315 71.3043 22.1803V21.0289C71.2867 20.6598 71.2339 20.3287 71.1461 20.0358C71.064 19.7369 70.941 19.4821 70.7769 19.2711C70.6187 19.0602 70.4195 18.8961 70.1793 18.7789C69.9449 18.6617 69.6666 18.6031 69.3443 18.6031C69.0162 18.6031 68.7349 18.6793 68.5005 18.8317C68.2662 18.9781 68.0757 19.1803 67.9293 19.4381C67.7886 19.6959 67.6832 20.0006 67.6129 20.3522C67.5484 20.6979 67.5162 21.0729 67.5162 21.4772ZM81.1392 24.2281V12.8024H83.688V26.3024H81.3941L81.1392 24.2281ZM75.1275 21.6617V21.4772C75.1275 20.7506 75.2095 20.0914 75.3736 19.4996C75.5377 18.902 75.7779 18.3893 76.0943 17.9615C76.4107 17.5338 76.8004 17.2028 77.2632 16.9684C77.7261 16.734 78.2535 16.6168 78.8453 16.6168C79.4019 16.6168 79.8882 16.734 80.3043 16.9684C80.7261 17.2028 81.0836 17.5367 81.3765 17.9703C81.6754 18.3981 81.9156 18.9049 82.0972 19.4908C82.2789 20.0709 82.4107 20.7067 82.4927 21.3981V21.8024C82.4107 22.4645 82.2789 23.0797 82.0972 23.6481C81.9156 24.2164 81.6754 24.7145 81.3765 25.1422C81.0836 25.5641 80.7261 25.8922 80.3043 26.1266C79.8824 26.361 79.3902 26.4781 78.8277 26.4781C78.2359 26.4781 77.7086 26.358 77.2457 26.1178C76.7886 25.8776 76.4019 25.5406 76.0855 25.1071C75.775 24.6735 75.5377 24.1637 75.3736 23.5778C75.2095 22.9918 75.1275 22.3531 75.1275 21.6617ZM77.6588 21.4772V21.6617C77.6588 22.0543 77.688 22.4205 77.7466 22.7604C77.8111 23.1002 77.9136 23.402 78.0543 23.6656C78.2007 23.9235 78.3882 24.1256 78.6168 24.2721C78.8511 24.4127 79.1353 24.483 79.4693 24.483C79.9029 24.483 80.2603 24.3864 80.5416 24.193C80.8228 23.9938 81.0367 23.7213 81.1832 23.3756C81.3355 23.0299 81.4234 22.6315 81.4468 22.1803V21.0289C81.4293 20.6598 81.3765 20.3287 81.2886 20.0358C81.2066 19.7369 81.0836 19.4821 80.9195 19.2711C80.7613 19.0602 80.5621 18.8961 80.3218 18.7789C80.0875 18.6617 79.8091 18.6031 79.4869 18.6031C79.1588 18.6031 78.8775 18.6793 78.6431 18.8317C78.4088 18.9781 78.2183 19.1803 78.0718 19.4381C77.9312 19.6959 77.8257 20.0006 77.7554 20.3522C77.691 20.6979 77.6588 21.0729 77.6588 21.4772ZM94.8062 16.7926V18.5856H89.2691V16.7926H94.8062ZM90.6402 14.4459H93.1714V23.4371C93.1714 23.7125 93.2066 23.9235 93.2769 24.0699C93.3531 24.2164 93.4644 24.319 93.6109 24.3776C93.7574 24.4303 93.942 24.4567 94.1646 24.4567C94.3228 24.4567 94.4634 24.4508 94.5865 24.4391C94.7154 24.4215 94.8238 24.4039 94.9117 24.3864L94.9205 26.2496C94.7037 26.3199 94.4693 26.3756 94.2173 26.4166C93.9654 26.4576 93.6871 26.4781 93.3824 26.4781C92.8257 26.4781 92.3394 26.3873 91.9234 26.2057C91.5132 26.0182 91.1968 25.7194 90.9742 25.3092C90.7515 24.899 90.6402 24.36 90.6402 23.692V14.4459ZM95.6148 21.6442V21.4596C95.6148 20.7623 95.7144 20.1207 95.9136 19.5348C96.1129 18.943 96.4029 18.4303 96.7838 17.9967C97.1646 17.5631 97.6334 17.2262 98.19 16.986C98.7466 16.7399 99.3853 16.6168 100.106 16.6168C100.827 16.6168 101.468 16.7399 102.031 16.986C102.593 17.2262 103.065 17.5631 103.446 17.9967C103.833 18.4303 104.126 18.943 104.325 19.5348C104.524 20.1207 104.624 20.7623 104.624 21.4596V21.6442C104.624 22.3356 104.524 22.9772 104.325 23.569C104.126 24.1549 103.833 24.6676 103.446 25.1071C103.065 25.5406 102.596 25.8776 102.04 26.1178C101.483 26.358 100.844 26.4781 100.124 26.4781C99.4029 26.4781 98.7613 26.358 98.1988 26.1178C97.6422 25.8776 97.1705 25.5406 96.7838 25.1071C96.4029 24.6676 96.1129 24.1549 95.9136 23.569C95.7144 22.9772 95.6148 22.3356 95.6148 21.6442ZM98.1461 21.4596V21.6442C98.1461 22.0426 98.1812 22.4147 98.2515 22.7604C98.3218 23.1061 98.4332 23.4108 98.5855 23.6744C98.7437 23.9323 98.9488 24.1344 99.2007 24.2809C99.4527 24.4274 99.7603 24.5006 100.124 24.5006C100.475 24.5006 100.777 24.4274 101.029 24.2809C101.281 24.1344 101.483 23.9323 101.635 23.6744C101.788 23.4108 101.899 23.1061 101.969 22.7604C102.045 22.4147 102.084 22.0426 102.084 21.6442V21.4596C102.084 21.0729 102.045 20.7096 101.969 20.3698C101.899 20.024 101.785 19.7194 101.627 19.4557C101.474 19.1862 101.272 18.9752 101.02 18.8229C100.768 18.6705 100.463 18.5944 100.106 18.5944C99.7486 18.5944 99.4439 18.6705 99.192 18.8229C98.9459 18.9752 98.7437 19.1862 98.5855 19.4557C98.4332 19.7194 98.3218 20.024 98.2515 20.3698C98.1812 20.7096 98.1461 21.0729 98.1461 21.4596ZM118.238 22.0573H120.866C120.813 22.9186 120.576 23.6832 120.154 24.3512C119.738 25.0192 119.155 25.5406 118.405 25.9156C117.661 26.2906 116.764 26.4781 115.715 26.4781C114.895 26.4781 114.16 26.3375 113.509 26.0563C112.859 25.7692 112.302 25.359 111.839 24.8258C111.382 24.2926 111.034 23.6481 110.794 22.8922C110.553 22.1364 110.433 21.2897 110.433 20.3522V19.4645C110.433 18.527 110.556 17.6803 110.802 16.9244C111.054 16.1627 111.412 15.5153 111.875 14.9821C112.343 14.4489 112.903 14.0387 113.553 13.7516C114.204 13.4645 114.93 13.3209 115.733 13.3209C116.799 13.3209 117.699 13.5143 118.431 13.901C119.169 14.2877 119.741 14.8209 120.145 15.5006C120.555 16.1803 120.801 16.9537 120.883 17.8209H118.247C118.217 17.3053 118.115 16.8688 117.939 16.5114C117.763 16.1481 117.497 15.8756 117.139 15.694C116.788 15.5065 116.319 15.4127 115.733 15.4127C115.294 15.4127 114.91 15.4948 114.582 15.6588C114.253 15.8229 113.978 16.0719 113.755 16.4059C113.533 16.7399 113.366 17.1617 113.254 17.6715C113.149 18.1754 113.096 18.7672 113.096 19.4469V20.3522C113.096 21.0143 113.146 21.5973 113.246 22.1012C113.345 22.5992 113.498 23.0211 113.703 23.3668C113.914 23.7067 114.183 23.9645 114.511 24.1403C114.845 24.3102 115.247 24.3951 115.715 24.3951C116.266 24.3951 116.72 24.3073 117.078 24.1315C117.435 23.9557 117.708 23.6949 117.895 23.3492C118.088 23.0035 118.203 22.5729 118.238 22.0573ZM127.572 24.1578V19.9215C127.572 19.6168 127.522 19.3561 127.422 19.1393C127.323 18.9166 127.168 18.7438 126.957 18.6207C126.752 18.4977 126.485 18.4362 126.157 18.4362C125.876 18.4362 125.632 18.486 125.427 18.5856C125.222 18.6793 125.064 18.817 124.953 18.9987C124.841 19.1744 124.786 19.3824 124.786 19.6227H122.254C122.254 19.2184 122.348 18.8346 122.536 18.4713C122.723 18.108 122.996 17.7887 123.353 17.5133C123.711 17.2321 124.135 17.0123 124.628 16.8541C125.126 16.6959 125.682 16.6168 126.297 16.6168C127.036 16.6168 127.692 16.7399 128.266 16.986C128.84 17.2321 129.292 17.6012 129.62 18.0934C129.954 18.5856 130.121 19.2008 130.121 19.9391V24.0084C130.121 24.5299 130.153 24.9576 130.217 25.2916C130.282 25.6198 130.376 25.9069 130.499 26.153V26.3024H127.941C127.818 26.0446 127.724 25.7223 127.66 25.3356C127.601 24.943 127.572 24.5504 127.572 24.1578ZM127.906 20.5104L127.923 21.943H126.508C126.174 21.943 125.884 21.9811 125.638 22.0573C125.392 22.1334 125.19 22.2418 125.032 22.3824C124.874 22.5172 124.756 22.6754 124.68 22.8571C124.61 23.0387 124.575 23.2379 124.575 23.4547C124.575 23.6715 124.625 23.8678 124.724 24.0436C124.824 24.2135 124.967 24.3483 125.155 24.4479C125.342 24.5416 125.562 24.5885 125.814 24.5885C126.195 24.5885 126.526 24.5123 126.807 24.36C127.088 24.2076 127.305 24.0201 127.458 23.7975C127.616 23.5748 127.698 23.3639 127.704 23.1647L128.372 24.2369C128.278 24.4772 128.149 24.7262 127.985 24.984C127.827 25.2418 127.625 25.485 127.378 25.7135C127.132 25.9362 126.836 26.1207 126.491 26.2672C126.145 26.4078 125.735 26.4781 125.26 26.4781C124.657 26.4781 124.109 26.358 123.617 26.1178C123.13 25.8717 122.744 25.5348 122.457 25.1071C122.175 24.6735 122.035 24.1813 122.035 23.6305C122.035 23.1324 122.128 22.6901 122.316 22.3033C122.503 21.9166 122.779 21.5914 123.142 21.3278C123.511 21.0582 123.971 20.8561 124.522 20.7213C125.073 20.5807 125.711 20.5104 126.438 20.5104H127.906ZM134.603 18.8668V26.3024H132.072V16.7926H134.454L134.603 18.8668ZM137.468 16.7311L137.424 19.0778C137.301 19.0602 137.152 19.0455 136.976 19.0338C136.806 19.0162 136.651 19.0074 136.51 19.0074C136.153 19.0074 135.842 19.0543 135.579 19.1481C135.321 19.236 135.104 19.3678 134.928 19.5436C134.758 19.7194 134.629 19.9332 134.542 20.1852C134.46 20.4371 134.413 20.7242 134.401 21.0465L133.891 20.8883C133.891 20.2731 133.953 19.7076 134.076 19.192C134.199 18.6705 134.378 18.2164 134.612 17.8297C134.852 17.443 135.145 17.1442 135.491 16.9332C135.836 16.7223 136.232 16.6168 136.677 16.6168C136.818 16.6168 136.961 16.6285 137.108 16.652C137.254 16.6696 137.375 16.6959 137.468 16.7311ZM143.761 16.7926V18.5856H138.224V16.7926H143.761ZM139.595 14.4459H142.127V23.4371C142.127 23.7125 142.162 23.9235 142.232 24.0699C142.308 24.2164 142.419 24.319 142.566 24.3776C142.712 24.4303 142.897 24.4567 143.12 24.4567C143.278 24.4567 143.419 24.4508 143.542 24.4391C143.67 24.4215 143.779 24.4039 143.867 24.3864L143.876 26.2496C143.659 26.3199 143.424 26.3756 143.172 26.4166C142.92 26.4576 142.642 26.4781 142.337 26.4781C141.781 26.4781 141.294 26.3873 140.878 26.2057C140.468 26.0182 140.152 25.7194 139.929 25.3092C139.707 24.899 139.595 24.36 139.595 23.692V14.4459Z" fill="black"/>
<path d="M14.5814 36.6512C15.519 36.6512 16.2791 35.8911 16.2791 34.9535C16.2791 34.0159 15.519 33.2559 14.5814 33.2559C13.6438 33.2559 12.8837 34.0159 12.8837 34.9535C12.8837 35.8911 13.6438 36.6512 14.5814 36.6512Z" fill="black" stroke="black" stroke-width="2" stroke-linecap="round" stroke-linejoin="round"/>
<path d="M33.2558 36.6512C34.1934 36.6512 34.9534 35.8911 34.9534 34.9535C34.9534 34.0159 34.1934 33.2559 33.2558 33.2559C32.3182 33.2559 31.5581 34.0159 31.5581 34.9535C31.5581 35.8911 32.3182 36.6512 33.2558 36.6512Z" fill="black" stroke="black" stroke-width="2" stroke-linecap="round" stroke-linejoin="round"/>
<path d="M12.3405 23.7319C12.4957 24.5135 12.9209 25.2156 13.5416 25.7153C14.1624 26.2149 14.9391 26.4804 15.7358 26.4651H32.2372C33.0339 26.4804 33.8106 26.2149 34.4314 25.7153C35.0521 25.2156 35.4773 24.5135 35.6326 23.7319L38.3488 9.48837H9.48964L12.3405 23.7319Z" fill="black"/>
<path d="M1 1H7.7907L9.48964 9.48837M9.48837 9.48837H9.48964M9.48964 9.48837L12.3405 23.7319C12.4957 24.5135 12.9209 25.2156 13.5416 25.7153C14.1624 26.2149 14.9391 26.4804 15.7358 26.4651H32.2372C33.0339 26.4804 33.8106 26.2149 34.4314 25.7153C35.0521 25.2156 35.4773 24.5135 35.6326 23.7319L38.3488 9.48837H9.48964Z" stroke="black" stroke-width="2" stroke-linecap="round" stroke-linejoin="round"/>
</svg>
