<svg width="91" height="41" viewBox="0 0 91 41" fill="none" xmlns="http://www.w3.org/2000/svg">
<path d="M55.5605 25.4991H58.1885C58.1357 26.3604 57.8984 27.1251 57.4766 27.793C57.0605 28.461 56.4775 28.9825 55.7275 29.3575C54.9834 29.7325 54.0869 29.92 53.0381 29.92C52.2178 29.92 51.4824 29.7794 50.832 29.4981C50.1816 29.211 49.625 28.8008 49.1621 28.2676C48.7051 27.7344 48.3564 27.0899 48.1162 26.334C47.876 25.5782 47.7559 24.7315 47.7559 23.794V22.9063C47.7559 21.9688 47.8789 21.1221 48.125 20.3663C48.377 19.6046 48.7344 18.9571 49.1973 18.4239C49.666 17.8907 50.2256 17.4805 50.876 17.1934C51.5264 16.9063 52.2529 16.7628 53.0557 16.7628C54.1221 16.7628 55.0215 16.9561 55.7539 17.3428C56.4922 17.7296 57.0635 18.2628 57.4678 18.9424C57.8779 19.6221 58.124 20.3956 58.2061 21.2628H55.5693C55.54 20.7471 55.4375 20.3106 55.2617 19.9532C55.0859 19.5899 54.8193 19.3174 54.4619 19.1358C54.1104 18.9483 53.6416 18.8546 53.0557 18.8546C52.6162 18.8546 52.2324 18.9366 51.9043 19.1006C51.5762 19.2647 51.3008 19.5137 51.0781 19.8477C50.8555 20.1817 50.6885 20.6036 50.5771 21.1133C50.4717 21.6172 50.4189 22.209 50.4189 22.8887V23.794C50.4189 24.4561 50.4688 25.0391 50.5684 25.543C50.668 26.0411 50.8203 26.463 51.0254 26.8087C51.2363 27.1485 51.5059 27.4063 51.834 27.5821C52.168 27.752 52.5693 27.837 53.0381 27.837C53.5889 27.837 54.043 27.7491 54.4004 27.5733C54.7578 27.3975 55.0303 27.1368 55.2178 26.7911C55.4111 26.4454 55.5254 26.0147 55.5605 25.4991ZM64.8945 27.5997V23.3633C64.8945 23.0587 64.8447 22.7979 64.7451 22.5811C64.6455 22.3585 64.4902 22.1856 64.2793 22.0626C64.0742 21.9395 63.8076 21.878 63.4795 21.878C63.1982 21.878 62.9551 21.9278 62.75 22.0274C62.5449 22.1212 62.3867 22.2589 62.2754 22.4405C62.1641 22.6163 62.1084 22.8243 62.1084 23.0645H59.5771C59.5771 22.6602 59.6709 22.2764 59.8584 21.9131C60.0459 21.5499 60.3184 21.2305 60.6758 20.9551C61.0332 20.6739 61.458 20.4542 61.9502 20.296C62.4482 20.1378 63.0049 20.0587 63.6201 20.0587C64.3584 20.0587 65.0146 20.1817 65.5889 20.4278C66.1631 20.6739 66.6143 21.043 66.9424 21.5352C67.2764 22.0274 67.4434 22.6426 67.4434 23.3809V27.4503C67.4434 27.9717 67.4756 28.3995 67.54 28.7335C67.6045 29.0616 67.6982 29.3487 67.8213 29.5948V29.7442H65.2637C65.1406 29.4864 65.0469 29.1641 64.9824 28.7774C64.9238 28.3848 64.8945 27.9922 64.8945 27.5997ZM65.2285 23.9522L65.2461 25.3848H63.8311C63.4971 25.3848 63.207 25.4229 62.9609 25.4991C62.7148 25.5753 62.5127 25.6837 62.3545 25.8243C62.1963 25.959 62.0791 26.1172 62.0029 26.2989C61.9326 26.4805 61.8975 26.6797 61.8975 26.8965C61.8975 27.1133 61.9473 27.3096 62.0469 27.4854C62.1465 27.6553 62.29 27.7901 62.4775 27.8897C62.665 27.9835 62.8848 28.0303 63.1367 28.0303C63.5176 28.0303 63.8486 27.9542 64.1299 27.8018C64.4111 27.6495 64.6279 27.462 64.7803 27.2393C64.9385 27.0167 65.0205 26.8057 65.0264 26.6065L65.6943 27.6788C65.6006 27.919 65.4717 28.168 65.3076 28.4258C65.1494 28.6837 64.9473 28.9268 64.7012 29.1553C64.4551 29.378 64.1592 29.5626 63.8135 29.709C63.4678 29.8497 63.0576 29.92 62.583 29.92C61.9795 29.92 61.4316 29.7999 60.9395 29.5596C60.4531 29.3135 60.0664 28.9766 59.7793 28.5489C59.498 28.1153 59.3574 27.6231 59.3574 27.0723C59.3574 26.5743 59.4512 26.1319 59.6387 25.7452C59.8262 25.3585 60.1016 25.0333 60.4648 24.7696C60.834 24.5001 61.2939 24.2979 61.8447 24.1631C62.3955 24.0225 63.0342 23.9522 63.7607 23.9522H65.2285ZM71.9258 22.3087V29.7442H69.3945V20.2344H71.7764L71.9258 22.3087ZM74.791 20.1729L74.7471 22.5196C74.624 22.502 74.4746 22.4874 74.2988 22.4756C74.1289 22.4581 73.9736 22.4493 73.833 22.4493C73.4756 22.4493 73.165 22.4962 72.9014 22.5899C72.6436 22.6778 72.4268 22.8096 72.251 22.9854C72.0811 23.1612 71.9521 23.3751 71.8643 23.627C71.7822 23.879 71.7354 24.1661 71.7236 24.4883L71.2139 24.3301C71.2139 23.7149 71.2754 23.1495 71.3984 22.6339C71.5215 22.1124 71.7002 21.6583 71.9346 21.2715C72.1748 20.8848 72.4678 20.586 72.8135 20.3751C73.1592 20.1641 73.5547 20.0587 74 20.0587C74.1406 20.0587 74.2842 20.0704 74.4307 20.0938C74.5771 20.1114 74.6973 20.1378 74.791 20.1729ZM81.084 20.2344V22.0274H75.5469V20.2344H81.084ZM76.918 17.8878H79.4492V26.879C79.4492 27.1544 79.4844 27.3653 79.5547 27.5118C79.6309 27.6583 79.7422 27.7608 79.8887 27.8194C80.0352 27.8721 80.2197 27.8985 80.4424 27.8985C80.6006 27.8985 80.7412 27.8926 80.8643 27.8809C80.9932 27.8633 81.1016 27.8458 81.1895 27.8282L81.1982 29.6915C80.9814 29.7618 80.7471 29.8174 80.4951 29.8585C80.2432 29.8995 79.9648 29.92 79.6602 29.92C79.1035 29.92 78.6172 29.8292 78.2012 29.6475C77.791 29.46 77.4746 29.1612 77.252 28.751C77.0293 28.3409 76.918 27.8018 76.918 27.1339V17.8878Z" fill="#FF7527"/>
<g clip-path="url(#clip0_38_50)">
<path d="M15.2791 37.3489C16.2167 37.3489 16.9768 36.5888 16.9768 35.6512C16.9768 34.7136 16.2167 33.9535 15.2791 33.9535C14.3415 33.9535 13.5814 34.7136 13.5814 35.6512C13.5814 36.5888 14.3415 37.3489 15.2791 37.3489Z" stroke="#FF7527" stroke-width="2" stroke-linecap="round" stroke-linejoin="round"/>
<path d="M33.9535 37.3489C34.8911 37.3489 35.6511 36.5888 35.6511 35.6512C35.6511 34.7136 34.8911 33.9535 33.9535 33.9535C33.0159 33.9535 32.2558 34.7136 32.2558 35.6512C32.2558 36.5888 33.0159 37.3489 33.9535 37.3489Z" stroke="#FF7527" stroke-width="2" stroke-linecap="round" stroke-linejoin="round"/>
<path d="M1.69769 1.69769H8.48839L13.0382 24.4296C13.1934 25.2112 13.6186 25.9133 14.2393 26.4129C14.8601 26.9126 15.6368 27.1781 16.4335 27.1628H32.9349C33.7316 27.1781 34.5083 26.9126 35.1291 26.4129C35.7498 25.9133 36.175 25.2112 36.3303 24.4296L39.0465 10.1861H10.1861" stroke="#FF7527" stroke-width="2" stroke-linecap="round" stroke-linejoin="round"/>
</g>
<defs>
<clipPath id="clip0_38_50">
<rect width="40.7442" height="40.7442" fill="white"/>
</clipPath>
</defs>
</svg>
