<svg width="122" height="30" viewBox="0 0 122 30" fill="none" xmlns="http://www.w3.org/2000/svg">
<rect x="0.5" y="0.5" width="121" height="29" rx="9.5" stroke="#FF7527"/>
<path d="M37.2871 17.6514C37.2871 17.4229 37.252 17.2178 37.1816 17.0361C37.1172 16.8486 36.9941 16.6787 36.8125 16.5264C36.6309 16.3682 36.376 16.2129 36.0479 16.0605C35.7197 15.9082 35.2949 15.75 34.7734 15.5859C34.1934 15.3984 33.6426 15.1875 33.1211 14.9531C32.6055 14.7188 32.1484 14.4463 31.75 14.1357C31.3574 13.8193 31.0469 13.4531 30.8184 13.0371C30.5957 12.6211 30.4844 12.1377 30.4844 11.5869C30.4844 11.0537 30.6016 10.5703 30.8359 10.1367C31.0703 9.69727 31.3984 9.32227 31.8203 9.01172C32.2422 8.69531 32.7402 8.45215 33.3145 8.28223C33.8945 8.1123 34.5303 8.02734 35.2217 8.02734C36.165 8.02734 36.9883 8.19727 37.6914 8.53711C38.3945 8.87695 38.9395 9.34277 39.3262 9.93457C39.7188 10.5264 39.915 11.2031 39.915 11.9648H37.2959C37.2959 11.5898 37.2168 11.2617 37.0586 10.9805C36.9062 10.6934 36.6719 10.4678 36.3555 10.3037C36.0449 10.1396 35.6523 10.0576 35.1777 10.0576C34.7207 10.0576 34.3398 10.1279 34.0352 10.2686C33.7305 10.4033 33.502 10.5879 33.3496 10.8223C33.1973 11.0508 33.1211 11.3086 33.1211 11.5957C33.1211 11.8125 33.1738 12.0088 33.2793 12.1846C33.3906 12.3604 33.5547 12.5244 33.7715 12.6768C33.9883 12.8291 34.2549 12.9727 34.5713 13.1074C34.8877 13.2422 35.2539 13.374 35.6699 13.5029C36.3672 13.7139 36.9795 13.9512 37.5068 14.2148C38.04 14.4785 38.4854 14.7744 38.8428 15.1025C39.2002 15.4307 39.4697 15.8027 39.6514 16.2188C39.833 16.6348 39.9238 17.1064 39.9238 17.6338C39.9238 18.1904 39.8154 18.6885 39.5986 19.1279C39.3818 19.5674 39.0684 19.9395 38.6582 20.2441C38.248 20.5488 37.7588 20.7803 37.1904 20.9385C36.6221 21.0967 35.9863 21.1758 35.2832 21.1758C34.6504 21.1758 34.0264 21.0938 33.4111 20.9297C32.7959 20.7598 32.2363 20.5049 31.7324 20.165C31.2344 19.8252 30.8359 19.3916 30.5371 18.8643C30.2383 18.3369 30.0889 17.7129 30.0889 16.9922H32.7344C32.7344 17.3906 32.7959 17.7275 32.9189 18.0029C33.042 18.2783 33.2148 18.501 33.4375 18.6709C33.666 18.8408 33.9355 18.9639 34.2461 19.04C34.5625 19.1162 34.9082 19.1543 35.2832 19.1543C35.7402 19.1543 36.1152 19.0898 36.4082 18.9609C36.707 18.832 36.9268 18.6533 37.0674 18.4248C37.2139 18.1963 37.2871 17.9385 37.2871 17.6514ZM41.1543 16.3418V16.1572C41.1543 15.46 41.2539 14.8184 41.4531 14.2324C41.6523 13.6406 41.9424 13.1279 42.3232 12.6943C42.7041 12.2607 43.1729 11.9238 43.7295 11.6836C44.2861 11.4375 44.9248 11.3145 45.6455 11.3145C46.3662 11.3145 47.0078 11.4375 47.5703 11.6836C48.1328 11.9238 48.6045 12.2607 48.9854 12.6943C49.3721 13.1279 49.665 13.6406 49.8643 14.2324C50.0635 14.8184 50.1631 15.46 50.1631 16.1572V16.3418C50.1631 17.0332 50.0635 17.6748 49.8643 18.2666C49.665 18.8525 49.3721 19.3652 48.9854 19.8047C48.6045 20.2383 48.1357 20.5752 47.5791 20.8154C47.0225 21.0557 46.3838 21.1758 45.6631 21.1758C44.9424 21.1758 44.3008 21.0557 43.7383 20.8154C43.1816 20.5752 42.71 20.2383 42.3232 19.8047C41.9424 19.3652 41.6523 18.8525 41.4531 18.2666C41.2539 17.6748 41.1543 17.0332 41.1543 16.3418ZM43.6855 16.1572V16.3418C43.6855 16.7402 43.7207 17.1123 43.791 17.458C43.8613 17.8037 43.9727 18.1084 44.125 18.3721C44.2832 18.6299 44.4883 18.832 44.7402 18.9785C44.9922 19.125 45.2998 19.1982 45.6631 19.1982C46.0146 19.1982 46.3164 19.125 46.5684 18.9785C46.8203 18.832 47.0225 18.6299 47.1748 18.3721C47.3271 18.1084 47.4385 17.8037 47.5088 17.458C47.585 17.1123 47.623 16.7402 47.623 16.3418V16.1572C47.623 15.7705 47.585 15.4072 47.5088 15.0674C47.4385 14.7217 47.3242 14.417 47.166 14.1533C47.0137 13.8838 46.8115 13.6729 46.5596 13.5205C46.3076 13.3682 46.0029 13.292 45.6455 13.292C45.2881 13.292 44.9834 13.3682 44.7314 13.5205C44.4854 13.6729 44.2832 13.8838 44.125 14.1533C43.9727 14.417 43.8613 14.7217 43.791 15.0674C43.7207 15.4072 43.6855 15.7705 43.6855 16.1572ZM54.25 13.5645V21H51.7188V11.4902H54.1006L54.25 13.5645ZM57.1152 11.4287L57.0713 13.7754C56.9482 13.7578 56.7988 13.7432 56.623 13.7314C56.4531 13.7139 56.2979 13.7051 56.1572 13.7051C55.7998 13.7051 55.4893 13.752 55.2256 13.8457C54.9678 13.9336 54.751 14.0654 54.5752 14.2412C54.4053 14.417 54.2764 14.6309 54.1885 14.8828C54.1064 15.1348 54.0596 15.4219 54.0479 15.7441L53.5381 15.5859C53.5381 14.9707 53.5996 14.4053 53.7227 13.8896C53.8457 13.3682 54.0244 12.9141 54.2588 12.5273C54.499 12.1406 54.792 11.8418 55.1377 11.6309C55.4834 11.4199 55.8789 11.3145 56.3242 11.3145C56.4648 11.3145 56.6084 11.3262 56.7549 11.3496C56.9014 11.3672 57.0215 11.3936 57.1152 11.4287ZM63.4082 11.4902V13.2832H57.8711V11.4902H63.4082ZM59.2422 9.14355H61.7734V18.1348C61.7734 18.4102 61.8086 18.6211 61.8789 18.7676C61.9551 18.9141 62.0664 19.0166 62.2129 19.0752C62.3594 19.1279 62.5439 19.1543 62.7666 19.1543C62.9248 19.1543 63.0654 19.1484 63.1885 19.1367C63.3174 19.1191 63.4258 19.1016 63.5137 19.084L63.5225 20.9473C63.3057 21.0176 63.0713 21.0732 62.8193 21.1143C62.5674 21.1553 62.2891 21.1758 61.9844 21.1758C61.4277 21.1758 60.9414 21.085 60.5254 20.9033C60.1152 20.7158 59.7988 20.417 59.5762 20.0068C59.3535 19.5967 59.2422 19.0576 59.2422 18.3896V9.14355ZM69.332 7.5H71.8633V18.8203L71.6084 21H69.332V7.5ZM77.8838 16.1484V16.333C77.8838 17.042 77.8076 17.6924 77.6553 18.2842C77.5088 18.876 77.2803 19.3887 76.9697 19.8223C76.6592 20.25 76.2725 20.584 75.8096 20.8242C75.3525 21.0586 74.8135 21.1758 74.1924 21.1758C73.6123 21.1758 73.1084 21.0586 72.6807 20.8242C72.2588 20.5898 71.9043 20.2588 71.6172 19.8311C71.3301 19.4033 71.0986 18.9023 70.9229 18.3281C70.7471 17.7539 70.6152 17.127 70.5273 16.4473V16.043C70.6152 15.3633 70.7471 14.7363 70.9229 14.1621C71.0986 13.5879 71.3301 13.0869 71.6172 12.6592C71.9043 12.2314 72.2588 11.9004 72.6807 11.666C73.1025 11.4316 73.6006 11.3145 74.1748 11.3145C74.8018 11.3145 75.3467 11.4346 75.8096 11.6748C76.2783 11.9092 76.665 12.2432 76.9697 12.6768C77.2803 13.1045 77.5088 13.6143 77.6553 14.2061C77.8076 14.792 77.8838 15.4395 77.8838 16.1484ZM75.3525 16.333V16.1484C75.3525 15.7617 75.3232 15.3984 75.2646 15.0586C75.2119 14.7129 75.1182 14.4111 74.9834 14.1533C74.8486 13.8896 74.6641 13.6816 74.4297 13.5293C74.2012 13.377 73.9053 13.3008 73.542 13.3008C73.1963 13.3008 72.9033 13.3594 72.6631 13.4766C72.4229 13.5938 72.2236 13.7578 72.0654 13.9688C71.9131 14.1797 71.7988 14.4316 71.7227 14.7246C71.6465 15.0117 71.5996 15.3281 71.582 15.6738V16.8252C71.5996 17.2881 71.6758 17.6982 71.8105 18.0557C71.9512 18.4072 72.1621 18.6855 72.4434 18.8906C72.7305 19.0898 73.1025 19.1895 73.5596 19.1895C73.917 19.1895 74.2129 19.1191 74.4473 18.9785C74.6816 18.8379 74.8633 18.6387 74.9922 18.3809C75.127 18.123 75.2207 17.8213 75.2734 17.4756C75.3262 17.124 75.3525 16.7432 75.3525 16.333ZM82.1729 19.9277L84.6953 11.4902H87.4111L83.5879 22.4326C83.5059 22.6729 83.3945 22.9307 83.2539 23.2061C83.1191 23.4814 82.9346 23.7422 82.7002 23.9883C82.4717 24.2402 82.1816 24.4453 81.8301 24.6035C81.4844 24.7617 81.0596 24.8408 80.5557 24.8408C80.3154 24.8408 80.1191 24.8262 79.9668 24.7969C79.8145 24.7676 79.6328 24.7266 79.4219 24.6738V22.8193C79.4863 22.8193 79.5537 22.8193 79.624 22.8193C79.6943 22.8252 79.7617 22.8281 79.8262 22.8281C80.1602 22.8281 80.4326 22.79 80.6436 22.7139C80.8545 22.6377 81.0244 22.5205 81.1533 22.3623C81.2822 22.21 81.3848 22.0107 81.4609 21.7646L82.1729 19.9277ZM81.1182 11.4902L83.1836 18.3809L83.5439 21.0615L81.8213 21.2461L78.4023 11.4902H81.1182ZM88.5186 19.7783C88.5186 19.4033 88.6475 19.0898 88.9053 18.8379C89.1689 18.5859 89.5176 18.46 89.9512 18.46C90.3848 18.46 90.7305 18.5859 90.9883 18.8379C91.252 19.0898 91.3838 19.4033 91.3838 19.7783C91.3838 20.1533 91.252 20.4668 90.9883 20.7188C90.7305 20.9707 90.3848 21.0967 89.9512 21.0967C89.5176 21.0967 89.1689 20.9707 88.9053 20.7188C88.6475 20.4668 88.5186 20.1533 88.5186 19.7783ZM88.5186 12.5273C88.5186 12.1523 88.6475 11.8389 88.9053 11.5869C89.1689 11.335 89.5176 11.209 89.9512 11.209C90.3848 11.209 90.7305 11.335 90.9883 11.5869C91.252 11.8389 91.3838 12.1523 91.3838 12.5273C91.3838 12.9023 91.252 13.2158 90.9883 13.4678C90.7305 13.7197 90.3848 13.8457 89.9512 13.8457C89.5176 13.8457 89.1689 13.7197 88.9053 13.4678C88.6475 13.2158 88.5186 12.9023 88.5186 12.5273Z" fill="#FF7527"/>
</svg>
