<svg width="141" height="68" viewBox="0 0 141 68" fill="none" xmlns="http://www.w3.org/2000/svg">
<rect x="19.5" y="11.5" width="121" height="29" rx="9.5" stroke="#FF7527"/>
<g filter="url(#filter0_d_215_186)">
<ellipse cx="35" cy="26" rx="23" ry="22" fill="#2E1000"/>
</g>
<path d="M43 33.8692V31.7864C43 30.6816 42.5786 29.6221 41.8284 28.8409C41.0783 28.0597 40.0609 27.6208 39 27.6208H31C29.9391 27.6208 28.9217 28.0597 28.1716 28.8409C27.4214 29.6221 27 30.6816 27 31.7864V33.8692" stroke="#FF7527" stroke-width="2" stroke-linecap="round" stroke-linejoin="round"/>
<path d="M35 23.4553C37.2091 23.4553 39 21.5903 39 19.2897C39 16.9891 37.2091 15.1241 35 15.1241C32.7909 15.1241 31 16.9891 31 19.2897C31 21.5903 32.7909 23.4553 35 23.4553Z" stroke="#FF7527" stroke-width="2" stroke-linecap="round" stroke-linejoin="round"/>
<path d="M84.3691 28.9434V31H77.9268V28.9434H84.3691ZM78.7793 18.2031V31H76.1426V18.2031H78.7793ZM85.3184 26.3418V26.1572C85.3184 25.46 85.418 24.8184 85.6172 24.2324C85.8164 23.6406 86.1064 23.1279 86.4873 22.6943C86.8682 22.2607 87.3369 21.9238 87.8936 21.6836C88.4502 21.4375 89.0889 21.3145 89.8096 21.3145C90.5303 21.3145 91.1719 21.4375 91.7344 21.6836C92.2969 21.9238 92.7686 22.2607 93.1494 22.6943C93.5361 23.1279 93.8291 23.6406 94.0283 24.2324C94.2275 24.8184 94.3271 25.46 94.3271 26.1572V26.3418C94.3271 27.0332 94.2275 27.6748 94.0283 28.2666C93.8291 28.8525 93.5361 29.3652 93.1494 29.8047C92.7686 30.2383 92.2998 30.5752 91.7432 30.8154C91.1865 31.0557 90.5479 31.1758 89.8271 31.1758C89.1064 31.1758 88.4648 31.0557 87.9023 30.8154C87.3457 30.5752 86.874 30.2383 86.4873 29.8047C86.1064 29.3652 85.8164 28.8525 85.6172 28.2666C85.418 27.6748 85.3184 27.0332 85.3184 26.3418ZM87.8496 26.1572V26.3418C87.8496 26.7402 87.8848 27.1123 87.9551 27.458C88.0254 27.8037 88.1367 28.1084 88.2891 28.3721C88.4473 28.6299 88.6523 28.832 88.9043 28.9785C89.1562 29.125 89.4639 29.1982 89.8271 29.1982C90.1787 29.1982 90.4805 29.125 90.7324 28.9785C90.9844 28.832 91.1865 28.6299 91.3389 28.3721C91.4912 28.1084 91.6025 27.8037 91.6729 27.458C91.749 27.1123 91.7871 26.7402 91.7871 26.3418V26.1572C91.7871 25.7705 91.749 25.4072 91.6729 25.0674C91.6025 24.7217 91.4883 24.417 91.3301 24.1533C91.1777 23.8838 90.9756 23.6729 90.7236 23.5205C90.4717 23.3682 90.167 23.292 89.8096 23.292C89.4521 23.292 89.1475 23.3682 88.8955 23.5205C88.6494 23.6729 88.4473 23.8838 88.2891 24.1533C88.1367 24.417 88.0254 24.7217 87.9551 25.0674C87.8848 25.4072 87.8496 25.7705 87.8496 26.1572ZM101.903 21.4902H104.197V30.6836C104.197 31.5508 104.004 32.2861 103.617 32.8896C103.236 33.499 102.703 33.959 102.018 34.2695C101.332 34.5859 100.535 34.7441 99.627 34.7441C99.2285 34.7441 98.8066 34.6914 98.3613 34.5859C97.9219 34.4805 97.5 34.3164 97.0957 34.0938C96.6973 33.8711 96.3633 33.5898 96.0938 33.25L97.21 31.7559C97.5029 32.0957 97.8428 32.3594 98.2295 32.5469C98.6162 32.7402 99.0439 32.8369 99.5127 32.8369C99.9697 32.8369 100.356 32.752 100.673 32.582C100.989 32.418 101.232 32.1748 101.402 31.8525C101.572 31.5361 101.657 31.1523 101.657 30.7012V23.6875L101.903 21.4902ZM95.5049 26.3594V26.1748C95.5049 25.4482 95.5928 24.7891 95.7686 24.1973C95.9502 23.5996 96.2051 23.0869 96.5332 22.6592C96.8672 22.2314 97.2715 21.9004 97.7461 21.666C98.2207 21.4316 98.7568 21.3145 99.3545 21.3145C99.9873 21.3145 100.518 21.4316 100.945 21.666C101.373 21.9004 101.725 22.2344 102 22.668C102.275 23.0957 102.489 23.6025 102.642 24.1885C102.8 24.7686 102.923 25.4043 103.011 26.0957V26.5C102.923 27.1621 102.791 27.7773 102.615 28.3457C102.439 28.9141 102.208 29.4121 101.921 29.8398C101.634 30.2617 101.276 30.5898 100.849 30.8242C100.427 31.0586 99.9229 31.1758 99.3369 31.1758C98.751 31.1758 98.2207 31.0557 97.7461 30.8154C97.2773 30.5752 96.876 30.2383 96.542 29.8047C96.208 29.3711 95.9502 28.8613 95.7686 28.2754C95.5928 27.6895 95.5049 27.0508 95.5049 26.3594ZM98.0361 26.1748V26.3594C98.0361 26.752 98.0742 27.1182 98.1504 27.458C98.2266 27.7979 98.3438 28.0996 98.502 28.3633C98.666 28.6211 98.8682 28.8232 99.1084 28.9697C99.3545 29.1104 99.6445 29.1807 99.9785 29.1807C100.441 29.1807 100.819 29.084 101.112 28.8906C101.405 28.6914 101.625 28.4189 101.771 28.0732C101.918 27.7275 102.003 27.3291 102.026 26.8779V25.7266C102.015 25.3574 101.965 25.0264 101.877 24.7334C101.789 24.4346 101.666 24.1797 101.508 23.9688C101.35 23.7578 101.145 23.5938 100.893 23.4766C100.641 23.3594 100.342 23.3008 99.9961 23.3008C99.6621 23.3008 99.3721 23.377 99.126 23.5293C98.8857 23.6758 98.6836 23.8779 98.5195 24.1357C98.3613 24.3936 98.2412 24.6982 98.1592 25.0498C98.0771 25.3955 98.0361 25.7705 98.0361 26.1748ZM108.838 21.4902V31H106.298V21.4902H108.838ZM106.14 19.0117C106.14 18.6426 106.269 18.3379 106.526 18.0977C106.784 17.8574 107.13 17.7373 107.563 17.7373C107.991 17.7373 108.334 17.8574 108.592 18.0977C108.855 18.3379 108.987 18.6426 108.987 19.0117C108.987 19.3809 108.855 19.6855 108.592 19.9258C108.334 20.166 107.991 20.2861 107.563 20.2861C107.13 20.2861 106.784 20.166 106.526 19.9258C106.269 19.6855 106.14 19.3809 106.14 19.0117ZM113.408 23.5205V31H110.877V21.4902H113.25L113.408 23.5205ZM113.039 25.9111H112.354C112.354 25.208 112.444 24.5752 112.626 24.0127C112.808 23.4443 113.062 22.9609 113.391 22.5625C113.719 22.1582 114.108 21.8506 114.56 21.6396C115.017 21.4229 115.526 21.3145 116.089 21.3145C116.534 21.3145 116.941 21.3789 117.311 21.5078C117.68 21.6367 117.996 21.8418 118.26 22.123C118.529 22.4043 118.734 22.7764 118.875 23.2393C119.021 23.7021 119.095 24.2676 119.095 24.9355V31H116.546V24.9268C116.546 24.5049 116.487 24.1768 116.37 23.9424C116.253 23.708 116.08 23.5439 115.852 23.4502C115.629 23.3506 115.354 23.3008 115.025 23.3008C114.686 23.3008 114.39 23.3682 114.138 23.5029C113.892 23.6377 113.687 23.8252 113.522 24.0654C113.364 24.2998 113.244 24.5752 113.162 24.8916C113.08 25.208 113.039 25.5479 113.039 25.9111Z" fill="#FF7527"/>
<defs>
<filter id="filter0_d_215_186" x="0" y="0" width="70" height="68" filterUnits="userSpaceOnUse" color-interpolation-filters="sRGB">
<feFlood flood-opacity="0" result="BackgroundImageFix"/>
<feColorMatrix in="SourceAlpha" type="matrix" values="0 0 0 0 0 0 0 0 0 0 0 0 0 0 0 0 0 0 127 0" result="hardAlpha"/>
<feOffset dy="8"/>
<feGaussianBlur stdDeviation="6"/>
<feComposite in2="hardAlpha" operator="out"/>
<feColorMatrix type="matrix" values="0 0 0 0 0 0 0 0 0 0 0 0 0 0 0 0 0 0 0.25 0"/>
<feBlend mode="normal" in2="BackgroundImageFix" result="effect1_dropShadow_215_186"/>
<feBlend mode="normal" in="SourceGraphic" in2="effect1_dropShadow_215_186" result="shape"/>
</filter>
</defs>
</svg>
